<svg xmlns="http://www.w3.org/2000/svg" xmlns:xlink="http://www.w3.org/1999/xlink" viewBox="0 0 191.75 257.33"><defs><style>.cls-1{fill:#473281;}.cls-2{fill:#93b2f2;}.cls-3{fill:#bdd6ff;}.cls-4{fill:url(#Gradiente_sem_nome_13);}.cls-5{fill:#7564b4;}.cls-6{fill:#ff9800;}.cls-7{fill:url(#Gradiente_sem_nome_11);}.cls-8{fill:#bab2db;}.cls-9{fill:url(#Gradiente_sem_nome_17);}.cls-10,.cls-11,.cls-12{fill:none;stroke:#473281;}.cls-10{stroke-linecap:round;stroke-linejoin:round;stroke-width:2px;}.cls-11,.cls-12{stroke-miterlimit:10;stroke-width:0.5px;}.cls-12{stroke-dasharray:2.99 2.99;}</style><linearGradient id="Gradiente_sem_nome_13" x1="78.88" y1="101.53" x2="78.88" y2="190.02" gradientUnits="userSpaceOnUse"><stop offset="0" stop-color="#7564b4"/><stop offset="1" stop-color="#473281"/></linearGradient><linearGradient id="Gradiente_sem_nome_11" x1="107.25" y1="161.62" x2="107.25" y2="250.12" gradientUnits="userSpaceOnUse"><stop offset="0" stop-color="#bab2db"/><stop offset="1" stop-color="#7564b4"/></linearGradient><linearGradient id="Gradiente_sem_nome_17" x1="218.85" y1="65.94" x2="219.32" y2="65.94" gradientTransform="matrix(0.97, 0.26, -0.26, 0.98, 23.23, -4.84)" gradientUnits="userSpaceOnUse"><stop offset="0" stop-color="#ffba00"/><stop offset="0.33" stop-color="#ffb500"/><stop offset="0.73" stop-color="#ffa600"/><stop offset="1" stop-color="#ff9800"/></linearGradient></defs><g id="Layer_2" data-name="Layer 2"><g id="OBJECTS"><path class="cls-1" d="M136.81,93.54H63.42a3.51,3.51,0,0,1-3.24-2.16l-2.75-6.56a5.73,5.73,0,0,0-5.28-3.52H21.61a5.73,5.73,0,0,0-5.28,3.51l-2.52,6a14.61,14.61,0,0,0-1.13,5.65v87A8.28,8.28,0,0,0,21,191.73H136.81a8.28,8.28,0,0,0,8.28-8.28V101.82A8.28,8.28,0,0,0,136.81,93.54Z" transform="translate(0 0)"/><rect class="cls-2" x="21.16" y="92.26" width="119.41" height="97.61"/><rect class="cls-3" x="18.61" y="95.06" width="119.41" height="97.61"/><rect class="cls-4" x="12.68" y="99.04" width="132.42" height="98.19" rx="8.28"/><polygon class="cls-5" points="62.92 135.72 65.78 138.55 76.86 127.59 76.86 166.43 80.91 166.43 80.91 127.59 91.98 138.55 94.84 135.72 78.88 119.94 62.92 135.72"/><polygon class="cls-5" points="107.97 163.61 107.97 172.69 49.79 172.69 49.79 163.61 45.75 163.61 45.75 176.69 112.02 176.69 112.02 163.61 107.97 163.61"/><polygon class="cls-1" points="63.1 135.37 65.92 138.2 76.88 127.24 76.88 166.08 80.88 166.08 80.88 127.24 91.84 138.2 94.67 135.37 78.88 119.58 63.1 135.37"/><polygon class="cls-1" points="107.66 163.25 107.66 172.34 50.1 172.34 50.1 163.25 46.1 163.25 46.1 176.34 111.66 176.34 111.66 163.25 107.66 163.25"/><path class="cls-6" d="M134.43,35.76C98.49,30.34,77.09,70.15,76.09,95.61c0,0,3.85-25.18,24.17-39.94,14.9-10.83,36.09-16.45,59.15-6C159.41,49.69,149,38,134.43,35.76Z" transform="translate(0 0)"/><path class="cls-1" d="M165.17,153.63H91.78a3.53,3.53,0,0,1-3.24-2.15l-2.75-6.57a5.71,5.71,0,0,0-5.28-3.51H50a5.73,5.73,0,0,0-5.28,3.51l-2.51,6A14.61,14.61,0,0,0,41,156.54v87a8.29,8.29,0,0,0,8.29,8.29H165.17a8.29,8.29,0,0,0,8.29-8.29V161.92A8.29,8.29,0,0,0,165.17,153.63Z" transform="translate(0 0)"/><rect class="cls-7" x="41.04" y="159.14" width="132.42" height="98.19" rx="8.28"/><polygon class="cls-8" points="123.21 210.74 120.35 207.91 109.27 218.87 109.27 180.03 105.23 180.03 105.23 218.87 94.15 207.91 91.29 210.74 107.25 226.53 123.21 210.74"/><polygon class="cls-8" points="136.34 223.7 136.34 232.79 78.16 232.79 78.16 223.7 74.12 223.7 74.12 236.79 140.38 236.79 140.38 223.7 136.34 223.7"/><polygon class="cls-5" points="123.04 210.39 120.21 207.56 109.25 218.52 109.25 179.68 105.25 179.68 105.25 218.52 94.29 207.56 91.46 210.39 107.25 226.18 123.04 210.39"/><polygon class="cls-5" points="136.03 223.35 136.03 232.44 78.47 232.44 78.47 223.35 74.47 223.35 74.47 236.44 140.03 236.44 140.03 223.35 136.03 223.35"/><path class="cls-9" d="M134.43,35.76c38.29,5,45.77,54.35,6.55,92.32a2.68,2.68,0,0,0,.48,4.18l5,3.44a2.68,2.68,0,0,1-.91,4.93l-28.48,6.25a3.09,3.09,0,0,1-3.78-2.74L112.37,117c-.08-2.25,2.59-3.55,4.61-2.24l6,3.88a3.09,3.09,0,0,0,4-.52c5.86-7.24,25-32.39,25.82-53.78C153.93,38,134.43,35.76,134.43,35.76Z" transform="translate(0 0)"/><path class="cls-10" d="M29.5,35.26a4.19,4.19,0,0,0,4.23-4.15A4.2,4.2,0,0,0,38,35.26a4.2,4.2,0,0,0-4.24,4.15A4.19,4.19,0,0,0,29.5,35.26Z" transform="translate(0 0)"/><path class="cls-10" d="M174.33,62.48a4.2,4.2,0,0,0,4.24-4.15,4.19,4.19,0,0,0,4.23,4.15,4.19,4.19,0,0,0-4.23,4.15A4.2,4.2,0,0,0,174.33,62.48Z" transform="translate(0 0)"/><path class="cls-10" d="M80.86,31.11A7.17,7.17,0,0,0,88.1,24a7.17,7.17,0,0,0,7.24,7.1,7.17,7.17,0,0,0-7.24,7.1A7.17,7.17,0,0,0,80.86,31.11Z" transform="translate(0 0)"/><path class="cls-11" d="M7.83,106.37c-.3-.4-.59-.81-.88-1.22" transform="translate(0 0)"/><path class="cls-12" d="M5.34,102.62a36.38,36.38,0,0,1-5-16.24c-.94-16.17,10-32.32,25.4-37.66s34.1.59,43.53,13.83c1.64,2.31,3,5.42,1.56,7.83C68.62,74,62.87,72.2,59.93,69.19c-9.68-9.91-9.7-28.29-2.77-40.25,20.76-35.78,77.92-35.78,108-12.77C181.93,29,192.9,50.44,191.35,71.43c-1.48,20.11-11.54,38.25-32.1,47.74" transform="translate(0 0)"/><path class="cls-11" d="M157.88,119.78c-.46.2-.92.4-1.38.58" transform="translate(0 0)"/></g></g></svg>